<?xml version="1.0" encoding="UTF-8" standalone="no"?>
<!-- Created with Inkscape (http://www.inkscape.org/) -->

<svg
   width="240mm"
   height="215mm"
   viewBox="0 0 240 215"
   version="1.1"
   id="svg1"
   inkscape:version="1.4 (e7c3feb1, 2024-10-09)"
   sodipodi:docname="logo_methbat copy.svg"
   inkscape:export-filename="logo_methbat.png"
   inkscape:export-xdpi="96"
   inkscape:export-ydpi="96"
   xmlns:inkscape="http://www.inkscape.org/namespaces/inkscape"
   xmlns:sodipodi="http://sodipodi.sourceforge.net/DTD/sodipodi-0.dtd"
   xmlns:xlink="http://www.w3.org/1999/xlink"
   xmlns="http://www.w3.org/2000/svg"
   xmlns:svg="http://www.w3.org/2000/svg">
  <sodipodi:namedview
     id="namedview1"
     pagecolor="#ffffff"
     bordercolor="#000000"
     borderopacity="0.25"
     inkscape:showpageshadow="2"
     inkscape:pageopacity="0.0"
     inkscape:pagecheckerboard="0"
     inkscape:deskcolor="#d1d1d1"
     inkscape:document-units="mm"
     inkscape:zoom="1.52"
     inkscape:cx="418.42105"
     inkscape:cy="321.71053"
     inkscape:window-width="1440"
     inkscape:window-height="785"
     inkscape:window-x="0"
     inkscape:window-y="205"
     inkscape:window-maximized="0"
     inkscape:current-layer="layer1"
     inkscape:export-bgcolor="#ffffffff" />
  <defs
     id="defs1">
    <linearGradient
       id="linearGradient1"
       inkscape:collect="always">
      <stop
         style="stop-color:#005496;stop-opacity:1;"
         offset="0"
         id="stop1" />
      <stop
         style="stop-color:#1383c6;stop-opacity:1;"
         offset="1"
         id="stop2" />
    </linearGradient>
    <linearGradient
       inkscape:collect="always"
       xlink:href="#linearGradient1"
       id="linearGradient2"
       x1="35.450493"
       y1="181.91856"
       x2="194.54951"
       y2="22.81954"
       gradientUnits="userSpaceOnUse"
       gradientTransform="translate(5,4.9999997)" />
  </defs>
  <g
     inkscape:label="Layer 1"
     inkscape:groupmode="layer"
     id="layer1">
    <path
       style="display:inline;fill:url(#linearGradient2);stroke-width:0.262545"
       d="m 206.81286,111.81398 c -0.199,3.82624 -0.21836,3.92103 -0.92504,4.5289 -0.87881,0.75591 -1.38586,0.76829 -3.58052,0.0874 -0.93859,-0.2912 -2.82892,-0.70311 -4.20072,-0.91535 -8.38069,-1.29666 -15.40455,0.6921 -22.6692,6.41858 -2.95543,2.32967 -9.27386,8.7257 -12.20829,12.35823 -2.4486,3.03111 -3.44045,3.93423 -4.32363,3.9368 -0.26162,7.8e-4 -1.6434,-1.11606 -3.07061,-2.4818 -3.81179,-3.64764 -6.56901,-4.88304 -10.91104,-4.88879 -3.51519,-0.005 -6.18224,0.72065 -9.80683,2.66702 -4.05794,2.1791 -8.82561,6.54534 -11.43806,10.47503 -1.65489,2.48931 -3.91218,7.75939 -4.95052,11.55797 -0.46001,1.68285 -1.01203,3.31656 -1.22671,3.63047 -0.25565,0.3738 -1.48317,0.96588 -3.55758,1.71595 -7.69081,2.78083 -13.56234,5.96624 -16.261113,8.82194 -1.18896,1.25811 -2.402877,1.92668 -3.155336,1.73782 -0.97001,-0.24346 -1.460612,-1.22783 -1.74037,-3.49202 -0.797926,-6.45782 -4.736949,-13.26677 -9.872464,-17.06547 -1.41953,-1.05001 -1.903454,-1.56416 -1.903454,-2.02235 0,-0.33791 0.369244,-2.07591 0.820541,-3.86221 0.744342,-2.94621 0.806807,-3.50383 0.672698,-6.00454 -0.525888,-9.80555 -7.045231,-18.08735 -16.158091,-20.52632 -2.897785,-0.77557 -7.452489,-0.76899 -10.874019,0.0157 -1.411393,0.32369 -2.802753,0.51344 -3.091908,0.42166 -0.886499,-0.28137 -1.267828,-1.20981 -1.672874,-4.07303 -0.78714,-5.56415 -2.77748,-12.04951 -5.19281,-16.92038 -4.421547,-8.916685 -12.476311,-15.175815 -21.46305,-16.678335 -1.534955,-0.25663 -2.114536,-0.48533 -2.69109,-1.06188 -1.048759,-1.04875 -0.948666,-1.96398 0.554386,-5.06922 0.709056,-1.46488 1.649,-3.84488 2.088756,-5.288879 3.706994,-12.17238 1.696302,-22.483308 -5.838835,-29.941744 -2.4051,-2.380624 -4.370087,-3.794604 -7.48713,-5.387657 -2.875429,-1.469572 -3.6608422,-2.53068 -2.9106854,-3.932359 0.4406693,-0.823403 0.9687996,-0.966369 6.3050064,-1.706781 10.681324,-1.48206 20.271906,-0.819165 31.101678,2.149726 13.55215,3.71521 23.870681,9.78203 33.833483,19.892542 5.636992,5.720554 5.165909,4.860006 5.586881,10.205933 0.608764,7.730656 1.659111,11.917749 4.456059,17.763409 3.720599,7.77613 8.207687,12.94996 13.998881,16.141335 1.95495,1.07733 2.24431,1.1699 2.45883,0.78659 0.13372,-0.23895 1.00367,-1.376485 1.93324,-2.527865 l 1.6901,-2.09342 -1.41386,-1.87959 c -2.83183,-3.76462 -3.8823,-5.99155 -4.54009,-9.62467 -0.99615,-5.50188 0.15268,-14.216966 2.13709,-16.212166 1.73091,-1.740325 3.06027,-1.117628 7.75925,3.634576 4.19605,4.24358 7.32659,8.62965 9.00244,12.61292 l 0.73284,1.74187 1.28663,0.17068 c 0.70765,0.0939 1.94171,0.42136 2.74236,0.72775 l 1.45573,0.55708 0.41875,-0.63181 c 0.90092,-1.35931 6.09268,-6.25763 7.95842,-7.50859 2.5639,-1.71905 6.58128,-3.7563 7.40733,-3.7563 1.56387,0 2.04935,1.90088 1.55532,6.08986 -0.75963,6.44102 -3.17898,11.95232 -6.96083,15.85686 l -1.42144,1.46757 0.28496,1.748295 c 0.15674,0.96157 0.30291,1.77892 0.32484,1.81635 0.0219,0.0374 1.47891,-0.68895 3.23774,-1.61419 3.5352,-1.859685 4.23148,-2.381905 8.85407,-6.640615 4.7743,-4.3985 7.7646,-8.15014 11.05205,-13.86595 1.12974,-1.96424 1.39193,-2.12161 7.95019,-4.77171 13.57159,-5.484093 28.77237,-6.797774 43.57365,-3.765728 6.25402,1.281134 9.94217,2.527816 16.01956,5.414978 3.55069,1.6868 3.95158,2.00464 3.95158,3.13297 0,1.44663 -0.62244,1.86656 -3.81527,2.57395 -3.61777,0.80151 -7.97207,0.974726 -14.45655,7.777409 -6.48449,6.802683 -6.94314,16.496916 -7.41532,25.575596 z m 13.52637,-1.82745 c -0.46898,18.44819 -4.85735,33.48308 -14.42871,49.43387 -8.14989,13.58186 -23.14815,27.85861 -37.07774,35.29404 -13.15881,7.024 -25.52161,10.8455 -39.35832,12.16618 -4.41843,0.42172 -14.02318,0.4823 -18.6642,0.11771 v -1e-5 C 98.193653,206.00719 85.214555,202.25837 72.651399,195.97671 62.75508,191.02848 55.877816,186.00253 47.039941,177.25967 38.435247,168.74748 31.731505,159.05968 26.572572,147.68154 c -3.768863,-8.31229 -5.526698,-14.10696 -7.116705,-23.46002 -1.089274,-6.40755 -1.267689,-9.28423 -1.116404,-18.00015 0.194104,-11.18317 1.283547,-19.354905 2.732291,-20.494495 0.813613,-0.63999 1.59344,-0.67598 2.400356,-0.1108 1.043619,0.73099 1.068158,1.29222 0.279262,6.38799 -1.026442,6.630145 -1.28172,9.946375 -1.284886,16.691115 -0.004,8.10254 0.821255,14.24522 3.155902,23.49618 2.60097,10.30629 7.831289,21.12482 15.041211,31.11163 10.039636,13.90636 24.24939,25.14562 40.347774,31.91322 17.585877,7.39293 37.457007,9.62407 55.922147,6.27896 12.48682,-2.26208 23.63791,-6.57918 34.30444,-13.28083 13.5733,-8.52793 24.06227,-19.28336 31.93986,-32.68514 7.1469,-12.1587 12.72719,-30.84672 12.80553,-44.57839 0.0779,-13.653499 -1.12287,-19.215331 -0.37647,-21.217696 0.38046,-1.020668 2.12431,-1.642634 2.79583,-0.837029 2.32102,2.784474 2.05838,21.090445 1.93616,21.090445 z m -116.55177,50.51988 4.0041,-2.01402 -1.64119,-1.16348 c -0.90265,-0.6399 -3.29522,-2.26291 -5.31683,-3.60668 -2.021596,-1.34377 -4.588074,-3.1345 -5.703287,-3.97941 -1.115213,-0.8449 -2.087922,-1.53619 -2.16158,-1.53619 -0.216063,0 -1.367812,2.39875 -1.724553,3.59174 -0.322328,1.07792 -0.311065,1.11758 0.629176,2.21603 1.276302,1.49107 3.425598,5.8937 4.156862,8.51491 l 0.589851,2.11433 1.581672,-1.06161 c 0.869927,-0.58388 3.383529,-1.96791 5.585779,-3.07562 z m 9.73919,-4.31138 c 0.78325,-0.39073 0.82797,-0.49357 0.82776,-1.90345 -5.3e-4,-3.11798 -0.54992,-7.25088 -1.2259,-9.22077 -0.74176,-2.16163 -2.25675,-5.33299 -3.66403,-7.67 l -0.8945,-1.48547 -2.16167,1.24131 c -1.18892,0.68272 -2.36838,1.35586 -2.62102,1.49584 -0.38574,0.21375 0.0294,0.61047 2.59043,2.47579 1.67737,1.2217 3.21322,2.45431 3.41298,2.73914 0.54429,0.77608 0.43983,1.661 -0.28123,2.38206 -1.17466,1.17466 -1.32323,1.10912 -7.81973,-3.45022 l -1.906377,-1.33792 -2.168725,1.54948 -2.168735,1.54948 0.724734,0.59994 c 0.398596,0.32998 3.442071,2.47343 6.763273,4.76323 3.3212,2.2898 6.85455,4.73058 7.85189,5.42394 0.99736,0.69337 1.83576,1.26067 1.86313,1.26067 0.0274,0 0.42234,-0.18587 0.87772,-0.41305 z m -25.828682,-8.22475 c 0.344853,-1.08655 2.317777,-3.78905 4.218562,-5.77857 2.186368,-2.28845 4.59897,-4.02655 10.22974,-7.36975 2.0216,-1.2003 3.77385,-2.26918 3.89388,-2.3753 0.12003,-0.10612 -0.40239,-1.18167 -1.16095,-2.39012 -3.26325,-5.1986 -5.313359,-10.69655 -5.665316,-15.19316 -0.30538,-3.90146 0.896336,-9.25175 2.944246,-13.10843 0.4938,-0.92996 0.87037,-1.70786 0.8368,-1.72868 -0.0335,-0.0208 -0.88804,-0.48409 -1.89884,-1.02953 -2.868034,-1.54761 -4.99799,-3.17753 -7.754313,-5.933835 -6.270584,-6.27059 -11.244999,-16.72298 -12.736224,-26.761716 -0.224517,-1.511423 -0.443904,-2.783737 -0.487525,-2.827361 -0.04366,-0.04362 -0.978653,1.201504 -2.077841,2.766949 -4.683215,6.669768 -9.452493,16.535018 -14.583116,30.165183 -1.755126,4.66272 -6.074774,16.92251 -6.074774,17.2411 0,0.0191 1.801724,0.0423 4.00382,0.0513 3.575852,0.0147 4.256379,0.0928 6.366718,0.73092 2.817191,0.85187 6.098767,2.37223 8.192921,3.79579 4.535056,3.08282 8.927717,9.79085 10.177198,15.54159 0.689785,3.17469 0.785512,8.34979 0.205068,11.08533 l -0.485928,2.29005 0.663579,0.66358 c 0.7948,0.79479 0.984011,0.82092 1.192295,0.16468 z m 33.905872,-8.34124 c 1.88927,-2.47249 6.04064,-6.42811 8.5831,-8.17837 2.48043,-1.70755 6.24983,-3.50297 8.71568,-4.1514 1.41116,-0.37108 2.78253,-0.48205 5.90726,-0.47799 3.71038,0.005 4.25478,0.0675 6.16982,0.70992 1.1552,0.38755 3.04553,1.29026 4.20072,2.00602 1.1552,0.71576 2.17644,1.22178 2.26943,1.12449 0.416,-0.43522 3.03929,-13.59017 4.01429,-20.13033 1.58309,-10.61918 2.08767,-21.912345 1.23507,-27.643055 l -0.16752,-1.126 -1.63877,2.32501 c -5.28938,7.50436 -13.39049,14.269145 -21.48084,17.937495 -1.64587,0.74627 -1.69092,0.79312 -1.69092,1.75864 0,0.54555 -0.26583,1.51908 -0.59073,2.16337 -0.69652,1.38125 -1.8229,2.01986 -5.11963,2.90263 l -2.166,0.57999 -0.002,2.2575 c -0.004,4.95471 -2.03222,10.06838 -5.42283,13.67262 -2.41711,2.56939 -4.52035,4.1348 -8.78968,6.54197 l -3.31872,1.8712 1.56532,2.61373 c 1.54595,2.58139 3.37754,6.66852 3.7516,8.37157 l 0.19252,0.87654 1.17205,-2.06143 c 0.64461,-1.13379 1.8194,-2.90864 2.61061,-3.94412 z m -9.96464,-10.3718 1.47735,-0.83376 -1.02187,-0.91631 c -4.21161,-3.7766 -4.42738,-4.08026 -3.77081,-5.30707 0.29043,-0.54267 1.56189,-1.29818 2.18476,-1.29818 0.38281,0 1.55179,0.92998 4.72932,3.76243 l 1.7173,1.53079 1.12823,-0.77824 c 0.62053,-0.42802 1.34656,-1.02081 1.61339,-1.3173 0.47529,-0.52812 0.46818,-0.56017 -0.34945,-1.57762 -0.91572,-1.13949 -4.64308,-4.50321 -8.93097,-8.05966 -3.6435,-3.02199 -3.49728,-2.86144 -3.47031,-3.8102 0.0428,-1.50343 1.68176,-2.49331 2.99546,-1.8091 1.2683,0.66057 7.02583,5.46762 9.95163,8.30875 1.67793,1.62938 3.11042,2.96252 3.18332,2.96252 0.28398,0 1.76113,-3.3672 2.16202,-4.92839 0.23255,-0.90561 0.49344,-2.56236 0.57975,-3.68165 l 0.15694,-2.03509 -1.54396,-0.3268 c -1.99164,-0.42158 -4.33016,-1.39016 -5.48733,-2.27278 -0.76024,-0.57986 -0.91371,-0.86422 -0.91371,-1.69305 0,-1.25059 0.71475,-1.98173 1.76183,-1.80223 0.4028,0.0691 1.79567,0.45456 3.09526,0.85669 3.35639,1.03855 6.95483,1.06982 9.09989,0.0791 l 1.48607,-0.68638 0.18527,-1.72998 c 0.66312,-6.1921 -2.55737,-12.610115 -7.52134,-14.989025 -1.19142,-0.57098 -2.56488,-0.97476 -4.01645,-1.18081 -2.60337,-0.36956 -2.93775,-0.64613 -3.81251,-3.15354 -0.72007,-2.06402 -2.55317,-5.34146 -4.18504,-7.48254 -1.71125,-2.24523 -5.85943,-6.485099 -6.10479,-6.239737 -0.11373,0.113727 -0.35232,1.602957 -0.53019,3.309417 -0.37485,3.59606 -0.0626,7.10364 0.8351,9.38114 0.7778,1.9733 2.63587,4.72998 4.59186,6.8126 1.4811,1.577 1.70196,1.94232 1.70196,2.81531 0,0.88069 -0.19487,1.19444 -1.59632,2.5702 -4.2684,4.190145 -7.83595,10.150915 -9.18099,15.339885 -0.74296,2.86623 -0.62691,7.04201 0.27393,9.85624 1.01188,3.16114 5.17037,11.15818 5.8023,11.15818 0.13517,0 0.91056,-0.3752 1.7231,-0.83377 z m 59.62743,-9.3446 c 5.02774,-4.1718 8.12742,-6.00499 12.74875,-7.53981 3.64122,-1.2093 6.26895,-1.54253 10.97338,-1.39152 l 3.90956,0.1255 -0.55415,-0.94408 c -2.77762,-4.73209 -12.22116,-15.204415 -18.74704,-20.789335 -4.18165,-3.57872 -12.30845,-9.41595 -12.64318,-9.08122 -0.0699,0.0699 0.0162,2.05733 0.19123,4.41668 0.57222,7.71492 -0.0309,17.971955 -1.61853,27.529075 -0.43818,2.63756 -2.72217,14.00806 -3.23745,16.11708 -0.0666,0.2726 1.29224,-0.98948 3.01965,-2.80463 1.7274,-1.81515 4.4084,-4.35213 5.95778,-5.63774 z M 55.030275,106.79012 c 0.990382,-3.01156 4.814695,-13.425245 6.327532,-17.229985 4.217233,-10.60626 9.563432,-21.101667 13.59075,-26.680712 0.990253,-1.371799 1.784795,-2.511999 1.765644,-2.533777 -0.109768,-0.124822 -8.508155,1.560795 -11.823072,2.372976 -4.262184,1.044268 -11.190691,3.248506 -15.835872,5.038029 -5.296842,2.040573 -15.374731,7.271354 -19.01802,9.871034 l -0.616008,0.43956 0.918907,0.32922 c 1.851269,0.66323 6.017439,2.88801 7.646582,4.08334 7.834802,5.74858 12.463163,13.197665 15.594158,25.097945 0.25645,0.9747 0.498064,1.77218 0.536923,1.77218 0.0389,0 0.44948,-1.15192 0.912476,-2.55981 z m 148.718015,-3.58945 c 1.0888,-9.175195 3.76791,-15.687615 8.51139,-20.689705 2.4894,-2.62513 4.88648,-4.30959 8.54149,-6.00225 1.37574,-0.63711 2.50325,-1.22718 2.50556,-1.31125 0.002,-0.0841 -0.37978,-0.28065 -0.84908,-0.43684 -0.4693,-0.1562 -2.03473,-0.71852 -3.47873,-1.24963 -7.18576,-2.64294 -17.32368,-3.93163 -25.99198,-3.30396 -8.73001,0.63213 -15.46838,2.19171 -22.53361,5.21534 l -1.79252,0.76714 2.00817,1.25163 c 5.71694,3.56322 11.02172,7.88613 17.55496,14.30573 5.42033,5.326025 8.68188,9.004975 12.2159,13.779205 l 2.51392,3.39614 0.1804,-1.03323 c 0.0992,-0.56828 0.37559,-2.67803 0.61413,-4.68832 z M 137.3197,87.703755 c 2.05243,-2.8956 3.1414,-5.57259 3.50902,-8.62616 0.11641,-0.96701 0.15918,-1.75818 0.0951,-1.75818 -0.0642,0 -0.84051,0.5182 -1.72525,1.15158 -3.58093,2.56355 -7.37379,6.65362 -6.83879,7.3747 3.40707,4.59221 3.10277,4.47823 4.95999,1.85806 z M 28.573172,73.201315 c 4.849247,-3.07831 14.483639,-7.89166 19.883849,-9.933981 8.363686,-3.163088 14.356833,-4.88502 21.921273,-6.298351 2.021597,-0.377714 4.425864,-0.827819 5.342806,-1.000233 l 1.667178,-0.313481 -3.373721,-3.285867 C 63.444935,42.075011 51.148171,35.930284 35.879456,33.313177 31.513478,32.564834 24.171948,32.223496 19.444505,32.54905 l -2.888001,0.198883 0.907575,0.691389 c 6.010214,4.578612 10.013597,10.490215 11.859171,17.511892 0.549852,2.091963 0.615651,2.912514 0.609121,7.596212 -0.0079,5.928955 -0.373927,8.547508 -1.787325,12.799079 -0.468047,1.4079 -0.813069,2.55982 -0.766728,2.55982 0.04634,0 0.584026,-0.31726 1.194854,-0.70501 z M 204.88014,62.551242 c -0.22854,-0.1805 -1.18135,-1.689317 -2.11739,-3.352925 -2.29853,-4.085225 -3.31789,-5.62918 -6.5197,-9.874926 -6.50316,-8.623534 -13.68942,-15.287817 -23.50083,-21.793866 -11.06303,-7.336003 -23.18895,-12.167482 -36.11194,-14.388524 -6.79568,-1.167954 -8.90247,-1.327127 -17.41856,-1.316026 -6.88084,0.0089 -8.79887,0.100024 -12.40846,0.589062 -10.395196,1.408379 -21.595978,4.770569 -30.0929,9.033123 -5.357739,2.687757 -10.388825,5.768451 -15.369085,9.410996 -1.94782,1.424623 -3.355641,1.411317 -4.10553,-0.03881 -0.849009,-1.641814 0.157527,-2.700622 6.57891,-6.920507 14.665676,-9.637715 28.48254,-14.3981524 46.949455,-16.1758724 4.73546,-0.45586 16.93359,-0.175302 21.83742,0.502259 15.37252,2.1240234 27.74944,6.5368244 40.70478,14.5126614 5.74278,3.535487 11.95079,8.435373 17.40898,13.740604 5.89614,5.730917 12.19218,13.901573 16.01292,20.780701 1.81406,3.266158 2.0578,4.49451 1.03412,5.211524 -0.70119,0.491132 -2.30556,0.535954 -2.88219,0.08052 z"
       id="path1"
       sodipodi:nodetypes="sssssssscssssssssssscsssssssssssssssssssscsssssccscssssscsssssssssscssssssssssssssscssssssssssssssssssscsssssscsssssscccsssssscssssssscscssscsssscsssccscssssscsssssccsscsscscccssssscsssscssssscssscsscssssssssssssssscssscssscssssscssssscscsssccscsssscssscscccssccccssscssscsscsscscssscsssssssssssssc" />
    <path
       style="fill:#676f7f;fill-opacity:1;stroke:#ffffff;stroke-width:1.225;stroke-linecap:round;stroke-linejoin:round;stroke-dasharray:none;stroke-opacity:1"
       d="m 86.643574,147.45997 c -0.466895,-0.51592 -0.517065,-0.95102 -0.244986,-2.1246 0.540845,-2.33289 0.413721,-9.358 -0.217832,-12.03761 -1.115372,-4.73243 -4.749485,-10.75191 -8.387079,-13.89224 -1.842755,-1.59084 -6.223979,-3.89476 -9.514189,-5.00316 -1.739427,-0.58597 -3.206277,-0.76191 -6.352062,-0.76191 -3.075974,0 -4.090349,-0.11769 -4.090349,-0.47455 0,-0.70055 5.610285,-16.247225 8.258444,-22.885002 3.795689,-9.514133 9.333722,-20.231853 12.974101,-25.108685 l 0.890495,-1.192953 0.813556,4.123385 c 2.743917,13.907117 10.099202,25.333224 19.889247,30.897057 1.01966,0.579491 1.90686,1.090758 1.97156,1.136158 0.0647,0.0454 -0.29173,0.89168 -0.79205,1.88064 -2.479648,4.90141 -3.405817,11.24001 -2.32148,15.88799 0.85681,3.67268 2.15048,6.90296 4.29296,10.71944 1.02005,1.81704 1.85463,3.42485 1.85463,3.57292 0,0.14805 -1.20969,0.98376 -2.68821,1.85713 -7.557628,4.46433 -12.079751,8.26797 -14.652123,12.32418 -1.029038,1.62263 -1.134128,1.69011 -1.684633,1.08181 z"
       id="path2" />
    <path
       style="fill:#676f7f;fill-opacity:1;stroke:#ffffff;stroke-width:1.225;stroke-linecap:round;stroke-linejoin:round;stroke-dasharray:none;stroke-opacity:1"
       d="M 53.250083,105.76124 C 52.232482,102.0176 50.18462,96.983019 48.422654,93.893207 44.855978,87.638619 39.86722,82.883236 33.478413,79.648056 l -3.460164,-1.752166 2.322334,-1.481576 c 7.014036,-4.474732 18.294673,-9.383483 28.092001,-12.224189 4.769794,-1.382985 15.189559,-3.708435 15.449928,-3.448061 0.08052,0.08052 -0.940663,1.783646 -2.269294,3.784732 -5.034836,7.583101 -10.706624,19.880511 -16.367358,35.487244 -1.608818,4.43554 -3.024288,8.06461 -3.145488,8.06461 -0.121201,0 -0.503831,-1.04284 -0.850289,-2.31741 z"
       id="path3" />
    <path
       style="fill:#676f7f;fill-opacity:1;stroke:#ffffff;stroke-width:1.225;stroke-linecap:round;stroke-linejoin:round;stroke-dasharray:none;stroke-opacity:1"
       d="m 27.974386,72.575842 c 0.137696,-0.356883 0.61372,-1.90028 1.057832,-3.429775 0.712717,-2.45455 0.807497,-3.672917 0.807643,-10.382023 l 1.66e-4,-7.601124 -1.260959,-3.305654 C 26.890958,43.431819 23.614815,38.618844 20.16979,35.503214 l -2.774075,-2.508832 2.515625,-0.221276 c 4.236442,-0.372637 13.684128,0.284342 18.691217,1.299763 10.676524,2.165162 20.63388,6.595271 28.568898,12.710535 2.927352,2.256018 9.575736,8.241586 9.575736,8.621075 0,0.127365 -1.793682,0.543499 -3.985956,0.924743 -14.554072,2.53099 -28.53324,7.596465 -41.406178,15.003891 -1.808022,1.040384 -3.364648,1.891606 -3.45917,1.891606 -0.09452,0 -0.0592,-0.291994 0.0785,-0.648877 z"
       id="path4" />
    <path
       style="fill:#9ba7ba;fill-opacity:1;stroke:#ffffff;stroke-width:1.225;stroke-linecap:round;stroke-linejoin:round;stroke-dasharray:none;stroke-opacity:1"
       d="m 117.6843,144.2209 c -1.0025,-2.81409 -2.19188,-5.43232 -3.49246,-7.68816 -1.15186,-1.99787 -1.39688,-2.69195 -1.03113,-2.92096 0.26386,-0.16521 1.95594,-1.17591 3.76018,-2.24599 8.26648,-4.90277 12.07217,-10.23928 12.96118,-18.17474 l 0.40343,-3.60108 2.57927,-0.78343 c 3.07879,-0.93515 4.5701,-2.24882 4.90082,-4.31701 0.21702,-1.35719 0.39903,-1.52922 3.06963,-2.90144 7.02993,-3.612116 14.69976,-10.03027 19.33075,-16.176065 1.88002,-2.49497 2.18793,-2.761556 2.3767,-2.057709 0.43306,1.614725 0.21307,14.126181 -0.34202,19.451174 -0.31295,3.0022 -0.9906,7.96136 -1.50589,11.02035 -0.91232,5.41602 -3.0657,16.2024 -3.27676,16.41346 -0.0579,0.0579 -1.75387,-0.69149 -3.76881,-1.66532 l -3.66353,-1.77061 -5.38047,0.0119 c -4.94455,0.011 -5.58315,0.0922 -7.88202,1.00258 -7.04258,2.78894 -13.63191,8.51966 -17.7787,15.46208 -0.86695,1.45142 -1.03391,1.57608 -1.26017,0.94094 z"
       id="path5" />
    <path
       style="fill:#9ba7ba;fill-opacity:1;stroke:#ffffff;stroke-width:1.225;stroke-linecap:round;stroke-linejoin:round;stroke-dasharray:none;stroke-opacity:1"
       d="m 162.76966,127.52516 c 0,-0.1718 0.74271,-4.07526 1.65047,-8.67438 2.43979,-12.36104 2.95764,-17.39531 2.94637,-28.642827 l -0.01,-9.527998 1.07711,0.629124 c 3.98669,2.328569 11.07794,8.214484 16.7954,13.940618 6.41248,6.422203 13.1357,14.378643 13.1357,15.545143 0,0.0807 -1.5434,0.0682 -3.42977,-0.0277 -6.70802,-0.34127 -13.28642,1.56333 -19.31867,5.59321 -1.96231,1.31093 -5.38461,4.20725 -8.11953,6.87162 -2.60014,2.53307 -4.72753,4.46502 -4.72753,4.29322 z"
       id="path6" />
    <path
       style="fill:#9ba7ba;fill-opacity:1;stroke:#ffffff;stroke-width:1.225;stroke-linecap:round;stroke-linejoin:round;stroke-dasharray:none;stroke-opacity:1"
       d="m 199.30201,103.70997 c -3.74866,-4.895164 -15.01492,-16.382464 -19.84696,-20.236348 -1.73342,-1.382527 -4.65337,-3.521252 -6.48876,-4.752721 -1.83539,-1.231469 -3.38142,-2.354077 -3.43562,-2.494688 -0.13456,-0.349107 6.51116,-2.776926 10.13185,-3.70137 6.3279,-1.615654 10.06116,-2.041024 17.96107,-2.046496 9.64194,-0.0067 15.28354,0.947669 23.30957,3.943096 l 1.98934,0.74245 -3.43786,1.815883 c -1.89083,0.998736 -4.32994,2.57801 -5.42026,3.509494 -5.6124,4.794829 -8.98638,11.956978 -10.34312,21.95601 -0.32356,2.38459 -0.70163,4.62224 -0.84017,4.97256 -0.19466,0.49224 -1.00775,-0.35011 -3.57908,-3.70787 z"
       id="path7" />
    <path
       style="fill:#009ca2;fill-opacity:1;stroke:#ffffff;stroke-width:1;stroke-linecap:round;stroke-linejoin:round;stroke-dasharray:none;stroke-opacity:1"
       d="m 108.71408,127.98365 c -4.10876,-6.80864 -5.75767,-12.43412 -4.99453,-17.03954 0.78441,-4.73379 3.9366,-10.87126 7.7687,-15.126041 4.16104,-4.620022 4.14765,-4.510124 1.01523,-8.331628 -2.70387,-3.298677 -3.88244,-5.379519 -4.47655,-7.903681 -0.81925,-3.480604 -0.53959,-10.065906 0.42746,-10.065906 0.553,0 4.74975,4.659786 6.45398,7.166078 0.66932,0.984321 1.86501,3.172603 2.65709,4.862848 0.79207,1.690246 1.68363,3.275262 1.98124,3.522255 0.29762,0.246997 1.62059,0.674939 2.93995,0.950984 2.89523,0.605761 4.2498,1.272863 6.24536,3.075734 3.10769,2.80761 4.74552,6.784078 4.74552,11.521617 v 2.94313 l -1.7346,0.59104 c -2.41993,0.82455 -5.31588,0.75231 -9.11757,-0.22746 -3.68105,-0.94868 -4.46174,-0.76654 -4.64796,1.08436 -0.15685,1.5589 1.38387,2.76101 4.94928,3.86158 l 2.84492,0.87817 -0.23696,2.3266 c -0.2448,2.40369 -1.91815,7.49924 -2.4627,7.49924 -0.16964,0 -1.86056,-1.45 -3.7576,-3.22223 -4.68437,-4.37615 -9.20105,-7.90136 -10.12363,-7.90136 -1.26223,0 -2.40981,1.04688 -2.40981,2.19833 0,0.87575 0.70186,1.63941 4.35674,4.74037 5.41905,4.59774 8.62079,7.61549 8.62079,8.12537 0,0.21479 -0.61336,0.82693 -1.36302,1.36032 l -1.36301,0.9698 -1.32519,-1.11215 c -5.4063,-4.53714 -5.30033,-4.48634 -6.83698,-3.2776 -1.52639,1.20065 -1.246,2.11197 1.44068,4.68231 l 2.41765,2.31296 -1.42736,0.72818 -1.42735,0.72818 z"
       id="path8" />
    <path
       style="fill:#009ca2;fill-opacity:1;stroke:#ffffff;stroke-width:1;stroke-linecap:round;stroke-linejoin:round;stroke-dasharray:none;stroke-opacity:1"
       d="m 133.75856,87.346328 -1.36041,-1.822212 1.26572,-1.657665 c 1.17427,-1.537896 6.79025,-6.384239 7.07182,-6.10267 0.29258,0.292576 -0.96728,5.156073 -1.71952,6.63792 -1.23078,2.424549 -2.9201,4.766836 -3.43798,4.766836 -0.25257,0 -1.07141,-0.819994 -1.81963,-1.822209 z"
       id="path9" />
    <path
       style="fill:#009ca2;fill-opacity:1;stroke:#ffffff;stroke-width:1;stroke-linecap:round;stroke-linejoin:round;stroke-dasharray:none;stroke-opacity:1"
       d="m 104.73716,150.88948 c -4.28016,-2.96528 -8.003095,-5.61161 -8.273198,-5.88074 -0.407217,-0.40575 -0.171016,-0.72428 1.382993,-1.86502 l 1.874084,-1.37571 3.920541,2.62161 c 4.58791,3.06788 5.39152,3.2347 6.37707,1.32386 0.61878,-1.19971 -0.0227,-2.13301 -3.01277,-4.38354 -1.55127,-1.16757 -2.82049,-2.24724 -2.82049,-2.39924 0,-0.15201 0.98737,-0.81919 2.19417,-1.48263 l 2.19416,-1.20625 1.51026,2.73593 c 2.08743,3.78147 3.24147,7.01465 3.71243,10.4007 0.61338,4.41006 0.53297,6.06373 -0.31698,6.51861 -0.39446,0.21111 -0.77186,0.38384 -0.83868,0.38384 -0.0668,0 -3.62344,-2.42614 -7.90359,-5.39142 z"
       id="path10" />
    <path
       style="fill:#009ca2;fill-opacity:1;stroke:#ffffff;stroke-width:1;stroke-linecap:round;stroke-linejoin:round;stroke-dasharray:none;stroke-opacity:1"
       d="m 96.389699,163.11631 c -0.198887,-0.52311 -0.361611,-1.09785 -0.361611,-1.27721 0,-0.69818 -2.619952,-6.02719 -3.708252,-7.54263 l -1.148189,-1.59882 0.786321,-2.10163 c 0.432477,-1.1559 0.852061,-2.10164 0.932405,-2.10164 0.08035,0 1.862037,1.21981 3.959315,2.7107 2.097278,1.49088 5.148062,3.5993 6.779522,4.68538 1.63146,1.08608 3.10472,2.09871 3.2739,2.25028 0.16918,0.15157 -1.49936,1.23879 -3.70787,2.41603 -2.20851,1.17725 -4.458359,2.44874 -4.99967,2.82554 -1.270013,0.88405 -1.374473,0.86867 -1.805871,-0.266 z"
       id="path11" />
  </g>
</svg>
